<svg width="28" height="28" viewBox="0 0 28 28" xmlns="http://www.w3.org/2000/svg">
    <g stroke="#000" stroke-width=".988" fill="none" fill-rule="evenodd" stroke-linejoin="round">
        <path d="M17.583 20H27.3c-.235-2.437-1.855-3.967-4.492-4.22l-.599-.02c-.575-.02-.575-.02-1.14-.019h-.564a.502.502 0 0 1-.373-.173l-6.459-8.114c-.478-.646-1.033-.83-1.528-.514-5.08 3.084-6.688.967-7.648-.297-.23-.302-.428-.563-.596-.64C3.89 6 3.88 6 3.873 6.004a.037.037 0 0 0-.016.022L1.3 14.56l13.183 4.888a9.095 9.095 0 0 0 3.1.552z"/>
        <path d="M3.199 8.454c2.17 1.822 3.124 4.42 2.86 7.793M20.163 15.602c-.894 1.237-1.38 2.703-1.458 4.398M19.233 13.041 17.89 14.13a.824.824 0 0 1-1.158-.122l-3-3.703a.824.824 0 0 1 .122-1.159l1.345-1.088h0" stroke-linecap="round"/>
        <path d="M27.3 22H16.899a9.07 9.07 0 0 1-2.65-.428l-.366-.125L.7 16.56l.6-2 13.183 4.888a9.095 9.095 0 0 0 3.016.552L27.3 20v2z"/>
        <path d="M19.3 22H8.899c-.6-.007 2.867-.007 10.401 0zM4.832 22H6.82c.114-.007-.548-.007-1.988 0z"/>
    </g>
</svg>
