<svg width="22" height="22" viewBox="0 0 22 22" xmlns="http://www.w3.org/2000/svg">
    <g transform="translate(2.6 1)" fill="none" fill-rule="evenodd">
        <path d="M3.35 1.1C1.865 1.135.835 1.859.397 2.424-.26 3.269-.068 5.2.723 7.179c.791 1.978 2.627 4.155 4.576 4.155M7.25 1.1c1.485.035 2.515.759 2.953 1.324.656.845.465 2.776-.326 4.755-.791 1.978-2.627 4.155-4.577 4.155" stroke="#000" stroke-linecap="round" stroke-linejoin="round"/>
        <path d="M5.3 11.334c-1.169 0-2.296-.781-3.182-1.833m6.363 0c-.886 1.052-2.014 1.833-3.182 1.833" stroke="#000" stroke-width="1.7" stroke-linecap="round" stroke-linejoin="round"/>
        <path d="M14.3 11.334V15.5a4.5 4.5 0 1 1-9 0v-4.166" stroke="#000"/>
        <circle stroke="#000" cx="14.3" cy="9.3" r="2.5"/>
        <circle fill="#000" opacity=".5" cx="14.3" cy="9.3" r="1.3"/>
        <circle fill="#000" cx="3.3" cy="1" r="1"/>
        <circle fill="#000" cx="7.3" cy="1" r="1"/>
    </g>
</svg>
