<svg width="28" height="28" viewBox="0 0 28 28" xmlns="http://www.w3.org/2000/svg">
    <g fill="none" fill-rule="evenodd">
        <path d="M24.588 24.118a1.413 1.413 0 0 1-1.412-1.412c0-.778.634-1.412 1.412-1.412.779 0 1.412.634 1.412 1.412 0 .778-.633 1.412-1.412 1.412zM14.235 2.775v10.867h0c0 1.03-3.008 4.06-4.295 5.25a1.96 1.96 0 0 1-1.332.52h-.563c-.469 0-.922-.216-1.28-.52C5.398 17.72 2 14.753 2 13.641V2.775C2 2.347 2.347 2 2.775 2H13.46c.428 0 .775.347.775.775z" stroke="#000" stroke-width=".988" stroke-linecap="round" stroke-linejoin="round"/>
        <path d="M12.824 9.735v3.782c-.345.592-1.634 2.138-4.152 4.483h-.637c-2.81-2.42-4.244-3.863-4.623-4.483v-.75s.17-2.356 2.689-1.668c1.942.53 2.166-1.06 3.436-2.046 1.056-.82 3.287-.531 3.287.682z" fill="#000" opacity=".5"/>
        <path d="M18.941 17.059v4.235a4.706 4.706 0 1 1-9.412 0v-1.882" stroke="#000" stroke-width=".988" stroke-linecap="round" stroke-linejoin="round"/>
        <path d="M18.941 17.793V10.94a2.824 2.824 0 1 1 5.647 0v10.353M7.176 19.412v1.412M3.882 4.851h2.824M3.882 6.851h2.824M3.882 8.851h2.824" stroke="#000" stroke-width=".988" stroke-linecap="round" stroke-linejoin="round"/>
    </g>
</svg>
