<svg width="94" height="94" viewBox="0 0 94 94" xmlns="http://www.w3.org/2000/svg">
    <g fill="none" fill-rule="evenodd">
        <circle fill="#EEE" cx="47" cy="47" r="47"/>
        <g transform="translate(30 21)">
            <path d="M8 7v3h19V7h5a2 2 0 0 1 2 2v9.975l-6.695 6.684c-1.31 1.307-2.964 3.893-1.906 5.2l.108.118c1.269 1.263 3.764-.235 5.332-1.8h0L34 26.02V49a2 2 0 0 1-2 2H2a2 2 0 0 1-2-2V9a2 2 0 0 1 2-2h6z" stroke="#BBB" stroke-width="2" stroke-linecap="round" stroke-linejoin="round"/>
            <path d="M17 0a4 4 0 0 1 4 4h2a3 3 0 0 1 3 3v3H8V7a3 3 0 0 1 3-3h2a4 4 0 0 1 4-4z" stroke="#BBB" stroke-width="2" stroke-linecap="round" stroke-linejoin="round"/>
            <circle fill="#BBB" cx="6.5" cy="20.5" r="1.5"/>
            <circle fill="#BBB" cx="6.5" cy="27.5" r="1.5"/>
            <circle fill="#BBB" cx="6.5" cy="34.5" r="1.5"/>
            <path stroke="#BBB" stroke-width="2" stroke-linecap="round" stroke-linejoin="round" d="M11 20.5h16M11 27.5h15M11 34.5h16"/>
            <circle fill="#BBB" cx="6.5" cy="41.5" r="1.5"/>
            <path stroke="#BBB" stroke-width="2" stroke-linecap="round" stroke-linejoin="round" d="M11 41.5h16"/>
            <g stroke="#BBB" stroke-linecap="round" stroke-linejoin="round" stroke-width="2">
                <path d="M25.507 30.977c-1.27-1.263.448-3.97 1.798-5.318l11.204-11.183c1.223-1.222 2.808-1.621 3.54-.893l.884.88c.732.728.333 2.308-.89 3.53L30.839 29.176c-1.568 1.566-4.063 3.064-5.332 1.801zM27.485 25.48l3.535 3.535M38.091 14.873l3.536 3.536"/>
            </g>
        </g>
    </g>
</svg>
