<svg width="28" height="28" viewBox="0 0 28 28" xmlns="http://www.w3.org/2000/svg">
    <g fill="none" fill-rule="evenodd">
        <path stroke="#000" stroke-width=".988" stroke-linecap="round" stroke-linejoin="round" d="M11.678 5.592h2.014M11.678 8.497h2.014M11.678 11.402h2.014M11.678 14.306h2.014M14 26.765c-3.179 0-5.765-2.535-5.765-5.65 0-2.005 1.105-3.878 2.884-4.888l.41-.233V3.657c0-1.336 1.109-2.422 2.471-2.422s2.47 1.086 2.47 2.422v12.337l.411.233c1.779 1.01 2.884 2.883 2.884 4.888 0 3.115-2.586 5.65-5.765 5.65z"/>
        <ellipse fill="#000" opacity=".5" cx="14.077" cy="21.046" rx="3.827" ry="3.88"/>
    </g>
</svg>
