<svg width="94" height="94" viewBox="0 0 94 94" xmlns="http://www.w3.org/2000/svg">
    <g fill="none" fill-rule="evenodd">
        <circle fill="#EEE" cx="47" cy="47" r="47"/>
        <path d="M62 28a2 2 0 0 1 2 2v40a2 2 0 0 1-2 2H32a2 2 0 0 1-2-2V30a2 2 0 0 1 2-2h6v3h19v-3h5z" stroke="#BBB" stroke-width="2" stroke-linecap="round" stroke-linejoin="round"/>
        <path d="M47 21a4 4 0 0 1 4 4h2a3 3 0 0 1 3 3v3H38v-3a3 3 0 0 1 3-3h2a4 4 0 0 1 4-4zM56 41.572C56 38.889 53.893 37 51.293 37c-1.913 0-3.556 1.178-4.293 2.87-.736-1.692-2.379-2.87-4.293-2.87-2.6 0-4.707 1.889-4.707 4.572 0 .416.178 1.915 1.177 3.428 2.437 3.685 7.228 7 7.823 7 .684 0 5.357-3.339 7.685-7 .79-1.243 1.315-3.067 1.315-3.428z" stroke="#BBB" stroke-width="2" stroke-linecap="round" stroke-linejoin="round"/>
        <path stroke="#BBB" stroke-width="2" stroke-linecap="round" stroke-linejoin="round" d="M44 42.503 47.189 46 57 36"/>
        <g transform="translate(35 55)">
            <circle fill="#BBB" cx="1.5" cy="1.5" r="1.5"/>
            <circle fill="#BBB" cx="1.5" cy="6.5" r="1.5"/>
            <circle fill="#BBB" cx="1.5" cy="11.5" r="1.5"/>
            <path stroke="#BBB" stroke-width="2" stroke-linecap="round" stroke-linejoin="round" d="M6 1.5h16M6 6.5h16M6 11.5h16"/>
        </g>
    </g>
</svg>
