<svg width="45" height="50" viewBox="0 0 45 50" xmlns="http://www.w3.org/2000/svg">
    <defs>
        <linearGradient x1="50.001%" y1="5.248%" x2="50.001%" y2="113.426%" id="bwhulows7a">
            <stop stop-color="#01C4FF" offset="0%"/>
            <stop stop-color="#00E9FF" offset="100%"/>
        </linearGradient>
        <linearGradient x1="-6.632%" y1="45.554%" x2="100.218%" y2="45.554%" id="uaplxx7z7b">
            <stop stop-color="#0DDB72" offset="0%"/>
            <stop stop-color="#00EF75" offset="100%"/>
        </linearGradient>
        <linearGradient x1="46.97%" y1="0%" x2="46.97%" y2="107.931%" id="oo78jkg27c">
            <stop stop-color="#FD3844" offset="0%"/>
            <stop stop-color="#E22650" offset="100%"/>
        </linearGradient>
        <linearGradient x1=".002%" y1="49.757%" x2="114.479%" y2="49.757%" id="rie1fedg0d">
            <stop stop-color="#FFD802" offset="0%"/>
            <stop stop-color="#FFBC00" offset="100%"/>
        </linearGradient>
    </defs>
    <g fill="none" fill-rule="evenodd">
        <path d="M0 2.883v43.842c0 1.328.87 2.358 1.986 2.731l25.416-24.761L2.158.1C.96.422 0 1.488 0 2.883" fill="url(#bwhulows7a)" transform="translate(0 .352)"/>
        <path d="m2.158.1 25.244 24.595 7.29-7.101L4.355.385A2.91 2.91 0 0 0 2.914 0c-.258 0-.512.035-.756.1" fill="url(#uaplxx7z7b)" transform="translate(0 .352)"/>
        <path d="M1.986 49.456a2.89 2.89 0 0 0 1.667.056l13.185-7.48.051-.029.027-.015.039-.022.179-.102.333-.189.051-.029.629-.356.317-.18.075-.043 3.196-1.813.005-.002.12-.07.007-.003.174-.098.008-.005.038-.021.052-.03.063-.036.03-.017.303-.172.012-.007a2.18 2.18 0 0 0 .033-.018l.018-.01.027-.015.081-.047.016-.008.145-.083.031-.017.034-.02a.066.066 0 0 1 .007-.004l.088-.05.08-.045.014-.008.05-.028.03-.018h.001l.056-.032.083-.047.178-.1a.153.153 0 0 0 .009-.006l.044-.024.003-.003.03-.016.005-.003.034-.02.006-.003.007-.004.002-.001.042-.024 11.061-6.274-7.36-7.17L1.986 49.456z" fill="url(#oo78jkg27c)" transform="translate(0 .352)"/>
        <path d="m27.402 24.695 7.36 7.17.004-.003.004-.002h.002l.009-.006.005-.003.004-.002.002-.001.175-.1.037-.02.003-.002.029-.017.004-.002.032-.018.004-.002.096-.055.011-.006a5.2 5.2 0 0 0 .061-.035l.04-.022 8.89-5.042a2.466 2.466 0 0 0-.559-3.871l-8.924-5.062-7.29 7.101z" fill="url(#rie1fedg0d)" transform="translate(0 .352)"/>
    </g>
</svg>
