<svg width="28" height="28" viewBox="0 0 28 28" xmlns="http://www.w3.org/2000/svg">
    <g stroke="#000" fill="none" fill-rule="evenodd" stroke-linejoin="round">
        <path d="M3.054 19.42c1.29 2.74 3.594 4.825 6.49 5.872a11.735 11.735 0 0 0 8.838-.329c1.115-.5 2.12-1.152 3.003-1.947-2.278.364-4.712-.072-7.002-1.275-2.804-1.473-5.143-3.972-6.586-7.038C6.425 11.788 5.98 8.655 6.51 5.76 2.285 8.923.787 14.603 3.054 19.42zM17.692 3h3.491l-3.25 3.124h3.25M10.308 5.76h4.615l-4.297 4.6h4.297" stroke-width=".988"/>
        <path stroke-width=".824" d="M23.23 12.2H26l-2.578 2.76H26"/>
    </g>
</svg>
