<svg width="94" height="94" viewBox="0 0 94 94" xmlns="http://www.w3.org/2000/svg">
    <g fill="none" fill-rule="evenodd">
        <circle fill="#EEE" cx="47" cy="47" r="47"/>
        <g stroke="#BBB" stroke-linecap="round" stroke-linejoin="round" stroke-width="2">
            <path d="M62 28a2 2 0 0 1 2 2v40a2 2 0 0 1-2 2H32a2 2 0 0 1-2-2V30a2 2 0 0 1 2-2h6v3h19v-3h5z"/>
            <path d="M47 21a4 4 0 0 1 4 4h2a3 3 0 0 1 3 3v3H38v-3a3 3 0 0 1 3-3h2a4 4 0 0 1 4-4z"/>
            <path d="M56 48.572C56 45.889 53.893 44 51.293 44c-1.913 0-3.556 1.178-4.293 2.87-.736-1.692-2.379-2.87-4.293-2.87-2.6 0-4.707 1.889-4.707 4.572 0 .416.178 1.915 1.177 3.428 2.437 3.685 7.228 7 7.823 7 .684 0 5.357-3.339 7.685-7 .79-1.243 1.315-3.067 1.315-3.428z" stroke-dasharray="4,3"/>
        </g>
    </g>
</svg>
