<svg width="28" height="28" viewBox="0 0 28 28" xmlns="http://www.w3.org/2000/svg">
    <g transform="translate(3 1.5)" fill="none" fill-rule="evenodd">
        <path d="M8.462 2.5C8.462 3.88 6.568 5 4.23 5 1.894 5 0 3.881 0 2.5 0 1.117 1.894 0 4.23 0c2.338 0 4.232 1.118 4.232 2.5zM8.462 2.5h8.619C19.796 2.5 22 4.553 22 7.085c0 1.264-.552 2.41-1.442 3.24a5.091 5.091 0 0 1-3.477 1.342h-2.696M7.615 11.667H4.92C2.204 11.667 0 13.718 0 16.25c0 1.265.55 2.41 1.442 3.24a5.091 5.091 0 0 0 3.477 1.342h9.466" stroke="#000" stroke-width=".988" stroke-linecap="round" stroke-linejoin="round"/>
        <rect fill="#000" opacity=".5" x="15.654" y="17.917" width="4.231" height="5.833" rx=".647"/>
        <path d="M7.615 11.666c0-1.84 1.516-3.333 3.385-3.333 1.87 0 3.385 1.493 3.385 3.333S12.869 15 11 15c-1.869 0-3.385-1.493-3.385-3.334z" stroke="#000" stroke-width=".988" stroke-linecap="round" stroke-linejoin="round"/>
        <rect stroke="#000" stroke-width=".988" x="14.385" y="16.667" width="6.769" height="8.333" rx="1.294"/>
        <path stroke="#000" stroke-width=".988" stroke-linecap="round" stroke-linejoin="round" d="M11 10v1.667l1.482 1.46"/>
    </g>
</svg>
