<svg width="94" height="94" viewBox="0 0 94 94" xmlns="http://www.w3.org/2000/svg">
    <g fill="none" fill-rule="evenodd">
        <circle fill="#638DE5" opacity=".1" cx="47" cy="47" r="47"/>
        <g stroke="#638DE5" stroke-linecap="round" stroke-linejoin="round" stroke-width="2">
            <path d="M62 28a2 2 0 0 1 2 2v40a2 2 0 0 1-2 2H32a2 2 0 0 1-2-2V30a2 2 0 0 1 2-2h6v3h19v-3h5z"/>
            <path d="M47 21a4 4 0 0 1 4 4h2a3 3 0 0 1 3 3v3H38v-3a3 3 0 0 1 3-3h2a4 4 0 0 1 4-4z"/>
            <path d="M47 61c5.523 0 10-4.477 10-10s-4.477-10-10-10-10 4.477-10 10 4.477 10 10 10z" stroke-dasharray="3,5"/>
            <path d="M45.565 43.256 47.97 40.7l-3.235-1.357M42.5 46.5 47 51l2.925-2.925"/>
        </g>
    </g>
</svg>
