<svg width="120" height="120" viewBox="0 0 120 120" xmlns="http://www.w3.org/2000/svg">
    <g fill="none" fill-rule="evenodd">
        <circle fill="#EEE" cx="60" cy="60" r="60"/>
        <path d="M79 36a3 3 0 0 1 3 3v51a3 3 0 0 1-3 3H41a3 3 0 0 1-3-3V39a3 3 0 0 1 3-3h8v4h22v-4h8z" stroke="#BBB" stroke-width="2" stroke-linecap="round" stroke-linejoin="round"/>
        <path d="M60 27a5 5 0 0 1 5 5h2a4 4 0 0 1 4 4v4H49v-4a4 4 0 0 1 4-4h2a5 5 0 0 1 5-5zM72 54.096C72 50.518 69.191 48 65.724 48c-2.55 0-4.742 1.57-5.724 3.826C59.019 49.57 56.828 48 54.276 48 50.81 48 48 50.518 48 54.096c0 .554.237 2.554 1.57 4.57C52.819 63.582 59.207 68 60 68c.912 0 7.143-4.452 10.246-9.333C71.3 57.009 72 54.577 72 54.096z" stroke="#BBB" stroke-width="2" stroke-linecap="round" stroke-linejoin="round"/>
        <path stroke="#BBB" stroke-width="2" stroke-linecap="round" stroke-linejoin="round" d="M56 55.454 60.17 60 73 47"/>
        <g transform="translate(45 72)">
            <circle fill="#BBB" cx="1.5" cy="1.5" r="1.5"/>
            <circle fill="#BBB" cx="1.5" cy="7.5" r="1.5"/>
            <circle fill="#BBB" cx="1.5" cy="13.5" r="1.5"/>
            <path stroke="#BBB" stroke-width="2" stroke-linecap="round" stroke-linejoin="round" d="M8 1.5h22M8 7.5h22M8 13.5h22"/>
        </g>
    </g>
</svg>
