<svg width="28" height="28" viewBox="0 0 28 28" xmlns="http://www.w3.org/2000/svg">
    <g stroke="#000" stroke-width=".988" fill="none" fill-rule="evenodd" stroke-linecap="round" stroke-linejoin="round">
        <path d="M2.923 13.92h3.65L7.67 8.545l6.579 10.91 1.919-4.392h8.909"/>
        <path d="M26 9.715C26 6.36 23.191 4 19.724 4 17.174 4 14.982 5.472 14 7.587 13.019 5.472 10.828 4 8.276 4 4.81 4 2 6.361 2 9.715c0 .52.237 2.394 1.57 4.285C6.819 18.607 13.207 24 14 24c.912 0 7.143-5.423 10.246-10C25.3 12.446 26 10.166 26 9.715z"/>
    </g>
</svg>
