<svg width="168" height="134" viewBox="0 0 168 134" xmlns="http://www.w3.org/2000/svg">
    <g fill="none" fill-rule="evenodd">
        <path d="M160 82.62c0 34.71-55.374 51.38-97.646 51.38C20.08 134-2.59 102.572.236 67.941 3.216 31.43 47.816 0 90.089 0 132.362 0 160 47.912 160 82.62" fill="#F9FAFC" opacity=".2"/>
        <path fill="#1F2A45" d="M93.157 108.235h32.22L136 61.452h-32.22z"/>
        <path fill="#A47C52" d="M71.687 82.3h34.772V78.19H71.687z"/>
        <path d="M106.516 80.603v1.723h-.836v29.397H73.975V82.325l-2.298.001v-1.723h34.84zm-3.06 3.714H76.199v25.176h27.257V84.317z" fill="#000"/>
        <path fill="#A47C52" d="M83.482 63.529h34.772V59.42H83.482z"/>
        <path d="M118.232 61.795v1.723h-1.496v47.469H85.03l-.001-47.47-1.56.001v-1.723h34.763zm-3.721 3.525H87.255v43.436l27.256-.01V65.32z" fill="#000"/>
        <path d="M108.866 72.816c3.634 3.705 6.092 8.838 6.577 14.66a24.806 24.806 0 0 1-.026 4.437 20.979 20.979 0 0 1 3.962-1.875 20.916 20.916 0 0 1 15.216.502 20.976 20.976 0 0 1-11.568 9.921 20.893 20.893 0 0 1-10.09.959c.241.366.47.74.687 1.12a20.598 20.598 0 0 1-14.967.896 20.653 20.653 0 0 1-11.649-9.46 20.597 20.597 0 0 1 14.967-.897 20.746 20.746 0 0 1 4.335 1.965 24.5 24.5 0 0 1-1.506-6.678c-.485-5.822 1.09-11.292 4.062-15.55z" fill="#E695A1"/>
        <path d="M94.848 83.04c3.99.204 7.92 1.844 10.95 4.918a16.548 16.548 0 0 1 4.169 7.183 16.312 16.312 0 0 1 3.928-6.14 16.288 16.288 0 0 1 10.88-4.69 16.363 16.363 0 0 1-4.872 10.821 16.324 16.324 0 0 1-4.799 3.282c.898.272 1.78.65 2.63 1.137a12.804 12.804 0 0 1 5.847 7.227c-3.016.682-6.285.28-9.18-1.379a12.784 12.784 0 0 1-5.195-5.585l-.183.01.023-.358a12.94 12.94 0 0 1-.272-.663 16.485 16.485 0 0 1-9.155-4.727 16.577 16.577 0 0 1-4.77-11.035z" fill="#B77492"/>
        <path fill="#736357" d="m103.54 112-.831-13.176h12.82L114.7 112z"/>
        <path fill="#000014" d="m103.54 112-.831-13.176h6.322V112z"/>
        <g>
            <path fill="#000" d="M89.13 37.34h21.498V3.627H89.13z"/>
            <path d="M111.119 3.91v31.484H91.386V3.91h19.733z" stroke="#485C88" stroke-width="1.821" fill="#FFF"/>
            <path fill="#B0B0B0" d="m92.28 4.804.451.452h17.043V34.04l.45.452V4.804z"/>
            <path fill="#EFDCCE" d="M75.569 32.662h11.354V9.37H75.57z"/>
        </g>
        <g>
            <path d="m113.025 59.864-29.801-.438a2.206 2.206 0 0 1-2.17-2.24l.007-.509 34.206.503-.008.509a2.205 2.205 0 0 1-2.234 2.175" fill="#485C88"/>
            <path d="m112.985 59.896-17.64-.26a2.205 2.205 0 0 1-2.17-2.24l.007-.508 22.045.324-.007.508a2.205 2.205 0 0 1-2.235 2.176" fill="#1F2A45"/>
            <path d="M113.412 58.297c.499.01.91-.387.92-.887l.011-.542a.904.904 0 0 0-.885-.922l-17.84-.351a.904.904 0 0 0-.92.886l-.011.542c-.01.5.386.913.884.923l17.841.35z" fill="#000"/>
            <path d="M99.238 41.35a1.99 1.99 0 0 0-1.95 1.482l-3.25 12.273a1.42 1.42 0 0 0 1.348 1.785l18.103.266a2.216 2.216 0 0 0 2.173-1.65l3.31-12.498a1.1 1.1 0 0 0-1.046-1.383l-18.688-.274z" fill="#485C88"/>
            <path d="M100.524 41.4a1.99 1.99 0 0 0-1.95 1.481l-3.25 12.273a1.42 1.42 0 0 0 1.348 1.785l18.103.266a2.216 2.216 0 0 0 2.173-1.65l3.31-12.498a1.1 1.1 0 0 0-1.045-1.382l-18.689-.275z" fill="#1F2A45"/>
            <path d="M106.417 52.9c-1.314-.612-1.741-2.485-.953-4.182.787-1.697 2.491-2.577 3.806-1.964 1.314.613 1.741 2.486.953 4.183-.787 1.697-2.491 2.577-3.806 1.964z" fill="#485C88"/>
        </g>
        <g>
            <path d="M13.743 57.631h57.663v27.173H13.743a.673.673 0 0 1-.672-.673V58.305c0-.372.301-.674.672-.674" fill="#7197A0"/>
            <path fill="#9BCAD1" d="M13.757 59.155h57.65V57.43h-57.65z"/>
            <path d="M16.359 85.769h-2.692a.673.673 0 0 1-.672-.674V57.923c0-.372.3-.673.672-.673h2.692c.371 0 .672.301.672.673v27.172c0 .372-.301.674-.672.674M71.013 85.769h-2.691a.673.673 0 0 1-.672-.674V57.923c0-.372.3-.673.672-.673h2.691c.372 0 .673.301.673.673v27.172c0 .372-.301.674-.673.674M40.519 85.769h4.036v-28.52h-4.036z" fill="#000"/>
            <path d="M10.741 83.749h63.372v27.39H10.74c-.371 0-.672-.76-.672-1.695v-24c0-.936.3-1.695.672-1.695" fill="#7197A0"/>
            <path d="M10.728 83.39H74.1v2.602H10.728a.673.673 0 0 1-.672-.674v-1.254c0-.372.3-.674.672-.674" fill="#9BCAD1"/>
            <path d="M10.741 93.807h63.372v4.713H10.74a.673.673 0 0 1-.672-.674v-3.365c0-.372.3-.674.672-.674" fill="#000"/>
            <path d="M10.75 111.437h-.078a.673.673 0 0 1-.672-.673V83.592c0-.372.3-.674.672-.674h.078c.371 0 .672.302.672.674v27.172c0 .372-.3.673-.672.673" fill="#000"/>
        </g>
        <g>
            <path d="M71.409 56.866c4.107-1.283 8.608-1.827 12.866-1.557.837.053 1.67.137 2.448.314l-.163-.034c1.31-.156 2.654-.08 3.859.437.462.199.894.458 1.325.717l.992.595a.623.623 0 0 1 .133.097c.027.028.048.06.077.086.079.07.194.07.3.073.318.006.635.054.942.14.341.098.709.288.797.633.015.059.014.134-.039.163a.157.157 0 0 1-.067.015l-3.264.22a.97.97 0 0 1 .04.72c-.089-.063-.203-.074-.312-.08-.901-.044-1.823.208-2.697-.018-.762-.198-1.386-.735-2.104-1.058-.159-.071-.325-.133-.462-.241-.134-.106-.233-.249-.354-.369l.11.12c-.32.083-.649.148-.972.213-1.748.35-3.483.748-5.198 1.192-2.661.69-5.441 1.508-8.116 1.27l-.011-.001a.695.695 0 0 1-.428-.19.174.174 0 0 1-.048-.067c-.161-.57-.337-1.135-.526-1.697a1.325 1.325 0 0 1 .858-1.689z" fill="#E59183"/>
            <path d="M44.264 44.305c-1.259-.968-3.124-1.055-4.467-.208-.95.6-1.595 1.572-2.174 2.536a45.67 45.67 0 0 0-4.788 11.062c-.37 1.31-.685 2.655-.637 4.015.019.555.105 1.126.39 1.602.287.477.808.842 1.362.812.276-.015.561-.123.822-.03.237.085.386.312.572.481.424.387 1.063.467 1.618.322.554-.145 1.038-.485 1.472-.86 1.923-1.66 3.08-4.054 3.78-6.5.699-2.445.99-4.986 1.491-7.48.32-1.587.726-3.214.428-4.806-.016-.081-.022-.187.052-.225.073-.037.122.135.044.108l.035-.83z" fill="#2F544B"/>
            <path d="M41.152 59.321a4.092 4.092 0 0 0-.037-.231c-.05-.237-.039-.202.034.106.063-.167-.228-.662-.309-.833l-.064-.131-.035-.065c-.061-.087-.126-.173-.132-.181a5.786 5.786 0 0 0-.39-.477c-.19-.163-.522-.436-.56-.464-.08-.06-.162-.117-.245-.175l-.082-.037a15.874 15.874 0 0 0-.782-.32c.197.08-.256-.086-.339-.113a23.61 23.61 0 0 0-2.392-.607l-.033-.003a14.132 14.132 0 0 0-2.194-.044c-.065.035-.131.07-.195.107-.048.028-.243.156-.312.198l-.01.008c-.088.076-.18.147-.267.223-.095.084-.185.171-.274.26a33.624 33.624 0 0 0-.632 2.248c-.285 1.171-.508 2.375-.348 3.59.066.498.202 1.008.542 1.434.34.426.918.753 1.499.726.29-.013.582-.11.864-.026.256.075.432.279.641.43.478.345 1.158.417 1.73.288.573-.13 1.055-.434 1.482-.77 1.424-1.116 2.356-2.605 2.96-4.205a1.575 1.575 0 0 1-.07-.377 6.648 6.648 0 0 0-.05-.559" fill="#254139"/>
            <path d="M60.984 69.176c.596-3.225.027-6.534-.302-9.798-.493-4.888-.441-9.812-.378-14.725.002-.136.002-.28-.068-.398-.068-.114-.19-.182-.307-.244-3.883-2.04-8.508-1.928-12.875-1.544-.82.072-1.652.155-2.418.457-.51.201-.978.495-1.442.786a1.057 1.057 0 0 0-.31.256c-.111.153-.132.352-.134.541-.008.795.241 1.567.42 2.342.342 1.486.427 3.02.472 4.545a87.48 87.48 0 0 1-.44 11.638c-.29 2.776-.708 5.631.047 8.317.063.223.137.451.293.623.134.147.318.24.5.323 2.327 1.062 5 1.055 7.537.731 2.238-.286 4.457-.706 6.696-.995 1.582-.204 2.419-1.287 2.709-2.855" fill="#2F544B"/>
            <path d="M73.562 56.064c-.287-.62-.92-.987-1.502-1.341-2.988-1.818-9.855-7.536-11.836-10.422-1.764 1.851.727 6.937-1.03 8.794.657.791 1.327 1.572 2.04 2.312.71.737 1.46 1.434 2.253 2.077a22.667 22.667 0 0 0 5.113 3.123c1.14.503 2.528.893 3.574.215.892-.578 1.199-1.722 1.413-2.765.137-.662.26-1.38-.025-1.993" fill="#2F544B"/>
            <path d="M49.087 34.316c-.04 2.097.255 4.236.073 6.306-.126 1.42-.474 2.781-.518 4.219a1.06 1.06 0 0 0 .038.382.79.79 0 0 0 .247.325c1.042.912 2.35 1.02 3.523.754.585-.133 1.177-.368 1.586-.907.116-.153.217-.335.245-.553.02-.156.002-.318-.016-.478-.26-2.271-.48-4.546-.661-6.823-.011-.143-.024-.294-.085-.419a.85.85 0 0 0-.163-.215c-.359-.372-.754-.672-1.13-1.01a10.133 10.133 0 0 1-1.176-1.26l-1.963-.32z" fill="#E59183"/>
            <g>
                <path d="M39.94 81.123c.027-.009.057-.007.08.016a4.857 4.857 0 0 1-.243 1.797c-.065.197-.154.4-.336.511-.168.102-.385.105-.59.106a54.391 54.391 0 0 0-10.683 1.103c-.837.172-1.707.363-2.557.165-.598-1.181-.574-2.602.064-3.704.297-.514.717-.96 1.066-1.442.845-.393 1.777-.666 2.683-.923.968.11 1.944.093 2.892-.055.347-.054.697-.126 1.052-.09.255.025.501.104.746.183l6.003 1.945-.178.388z" fill="#E59183"/>
                <path d="M59.76 70.94c-3.379.294-6.819.053-10.093-.87a31.004 31.004 0 0 1-3.743-1.347v.01c-.05 2.136-.098 4.297.48 6.38 1.425-.62 3.147-.33 4.747-.174 3.212.315 6.508.006 9.562-.871-.22-.93-.381-1.869-.515-2.812-.145-.106-.292-.211-.438-.316" fill="#37456E"/>
                <path d="M73.06 77.33c-.507-1.276-.593-2.665-1.81-3.57-.62-.46-1.401-.685-2.176-.855-5.504-1.207-11.332-.066-17.02-.191-2.27-.05-4.531-.303-6.806-.198-.734.034-1.482.109-2.164.387-.762.311-1.396.86-1.917 1.473-1.36 1.602-2.008 3.714-1.752 5.71.09.7.293 1.38.59 2.022a47.306 47.306 0 0 1 4.35-.448c4.532-.235 9.069.138 13.575.598.64.065 1.197.3 1.606.684 3.008-.492 6.028-.909 9.055-1.245 1.298-.145 2.674-.303 3.723-1.063 1.228-.89 1.22-2.12.747-3.305" fill="#37456E"/>
                <path d="M40.052 83.61c3.464-.02 6.928.11 10.38.385 3.623.288 7.246.739 10.878.63 3.633-.108 7.326-.81 10.453-2.667.84-.5 1.689-1.155 1.936-2.103.33-1.265-.547-2.55-1.596-3.325-1.416-1.047-3.184-1.53-4.939-1.658-1.754-.128-3.514.078-5.26.292a500.469 500.469 0 0 0-23.527 3.46c-.968.165-1.947.337-2.846.734l2.076 3.692c.091.163.188.33.34.438.228.162.53.154.81.14l3.15-.162-1.855.143z" fill="#1F2A45"/>
                <path d="M44.893 77.933c-.012-.03-.013-.06.01-.087a5.919 5.919 0 0 1 2.061.155c.23.058.47.14.615.329.134.173.161.404.184.623a56.26 56.26 0 0 0 2.415 11.33c.286.883.598 1.8.466 2.718a4.696 4.696 0 0 1-4.2.147c-.615-.287-1.166-.709-1.749-1.053-.538-.88-.949-1.857-1.338-2.81a11.01 11.01 0 0 0-.378-3.08c-.1-.367-.22-.737-.218-1.117.001-.273.065-.541.128-.806l1.546-6.516.458.167z" fill="#E59183"/>
                <g>
                    <path d="M42.524 45.174c-.637.5-1.071 1.218-1.446 1.942-2.663 5.144-2.966 11.175-4.55 16.76-.633 2.23-1.474 4.403-1.946 6.674-.153.733-.267 1.49-.151 2.23.129.828.538 1.587 1.042 2.25 1.32 1.73 3.35 2.88 5.492 3.108a8.018 8.018 0 0 0 6.008-1.88c.447-.386.86-.83 1.118-1.365.392-.812.398-1.753.403-2.657.04-7.532.578-15.06 1.607-22.519.182-1.317.37-2.714-.153-3.933-.612-1.428-1.894-1.717-3.248-1.536-1.456.194-2.923-.057-4.176.926" fill="#1F2A45"/>
                    <path d="M42.437 80.11c-.85-10.366-.799-20.783-.746-31.185.005-1.105.026-2.27.587-3.222.677-1.148 2.003-1.745 3.297-2.056.784-.189 1.604-.299 2.394-.139.79.16 1.55.624 1.912 1.345.238.477.29 1.023.318 1.555.092 1.696-.006 3.395-.104 5.09L48.383 81.25c-1.487.065-2.987.131-4.429.502-.361.093-.744.205-1.1.093-.356-.111-.63-.56-.419-.868l-.43.14.432-1.005z" fill="#37456E"/>
                    <path d="M50.418 46.408c-.028-.532-.08-1.078-.318-1.555-.362-.721-1.122-1.185-1.912-1.345-.609-.123-1.236-.085-1.85.025.75.179 1.458.632 1.803 1.32.239.477.29 1.023.318 1.555.092 1.696-.006 3.395-.104 5.09L46.66 80.964l.052.391c.629-.05 1.26-.078 1.89-.106l1.712-29.75c.098-1.696.195-3.395.104-5.09" fill="#475988"/>
                </g>
            </g>
            <g>
                <path d="M53.012 24.382c-.426-2.235-2.19-4.007-4.391-4.217a7.937 7.937 0 0 0-.04-.004c-1.367-.122-2.815.221-3.837 1.163-.784.722-1.266 1.745-1.491 2.804-.225 1.058-.208 2.156-.116 3.235.273 3.19 1.954 10.326 3.167 13.273.416 1.009.869 2.011 1.104 3.08.236 1.069.238 2.231-.226 3.217 1.046-.67 2.794-2.374 2.928-3.636.134-1.262-.134-2.533-.484-3.75-.41-1.42.205-5.394.61-6.816.369-1.298-.872-2.76.344-3.27 1.216-.509 1.832-1.254 3.14-1.37l-.708-3.709z" fill="#1F2A45"/>
                <path d="M47.702 27.507c.113-.548-.33-1.08-.28-1.636.019-.195.096-.379.173-.559.194-.453.408-.93.815-1.205.258-.174.569-.249.874-.308.347-.068.697-.12 1.05-.156.38-.039.779-.057 1.13.096.555.243.866.948.651 1.515-.157.413-.534.7-.921.912a3.82 3.82 0 0 1-.782.328c-.14.04-.283.07-.418.125-.301.12-.553.36-.689.654l-1.603.234z" fill="#B77492"/>
                <path d="M57.334 29.545a3.55 3.55 0 0 0-.321-1.694c-.238-.531-.603-1.03-1.121-1.293-.097-.049-.239-.077-.294.016a2.859 2.859 0 0 1-.105 2.691c-.054.09-.113.205-.054.291.02.03.053.05.084.07.52.33.99.8 1.28 1.347.335-.362.495-.944.53-1.428M47.263 29c.86-.624 2.138-.59 2.965.08l.318 1.572c.11-.004.17.146.127.249-.041.102-.14.167-.226.237-.524.428-.643 1.19-.57 1.864.092.848.43 1.667.962 2.333.124.154.26.305.39.46a9.043 9.043 0 0 0-2.054-.566 3.228 3.228 0 0 0-.16-.297c-.71-1.156-2.127-1.815-2.606-3.085-.375-.996-.007-2.223.854-2.847" fill="#1F2A45"/>
                <path d="M56.53 29.575c.64 1.543.883 3.238.811 4.909-.071 1.67-.45 3.319-1.006 4.895-.068.193-.144.393-.295.53-.184.168-.447.214-.695.23-1.249.08-2.484-.415-3.491-1.158-1.008-.744-1.815-1.725-2.568-2.727-.49-.012-.957-.247-1.31-.589-.351-.34-.595-.781-.767-1.24-.146-.39-.243-.82-.13-1.22.112-.4.491-.748.904-.703.176.02.337.106.486.203.584.384 1.03.974 1.24 1.641-.545-1.372-.581-2.89-.521-4.366.014-.358.057-.763.342-.98.163-.124.376-.159.578-.19l2.766-.423c.68-.105 1.37-.21 2.054-.14.311.03.8.064 1.044.278.263.23.426.735.557 1.05" fill="#E9A798"/>
                <path d="M47.863 28.873c-.036-.4-.066-.807-.02-1.198.09-.763.46-1.368.885-1.777.425-.408.91-.657 1.366-.982-.111.301-.117.68-.056 1.025.061.346.184.662.32.959.207.449.447.86.7 1.248a8.45 8.45 0 0 0 .347 2.209c-.347.93-.686 1.916-.71 3.006-.008.373.021.755-.038 1.113l-.596-.14c-.035-.008-.243.024-.273-.006-.028-.028-.06.06-.079.016-.227-.547-.76-1.175-1.052-1.648-.192-.312-.155-.853-.357-1.15-.491-.721-.346-1.664-.437-2.675" fill="#1F2A45"/>
                <path d="M45.976 30.192c-.105-1.161.638-1.382 1.53-1.553-.05-.474.154-.985.372-1.43.182-.373.375-.744.623-1.076.936-1.249 2.556-1.805 4.11-1.909.524-.034 1.062-.024 1.557.151.69.244 1.235.785 1.693 1.357.213.267.415.545.623.817-.018.01-.035.023-.052.034.071.1.14.2.202.306.278.473.457 1.022.4 1.568a1.68 1.68 0 0 1-.507 1.043c-2.407.45-4.712.74-7.2.664-.74-.023-1.168.4-1.312.935a7.12 7.12 0 0 1-.978-.146c-.26-.059-.522-.135-.74-.288a1.244 1.244 0 0 1-.323-.336c0-.046.006-.089.002-.137M57.506 35.622a1.023 1.023 0 0 1-.21.077c-.187.054-.397.086-.564-.017-.182-.114-.353-.327-.454-.851-.14-.727-.026-.951-.008-1.081a.613.613 0 0 1 .155-.35l.373-.222c.161-.052.318-.12.481-.165a.99.99 0 0 1 .498-.03c.162.04.315.148.385.313a.814.814 0 0 1 .052.251c.018.235.026 1.676-.708 2.075m-2.536-1.749c-.044.363-.13.721-.256 1.063a1.664 1.664 0 0 1-.097.224 1.91 1.91 0 0 1-.246.329 1.704 1.704 0 0 1-.246.246c-.282.215-.66.22-.989.186a1.947 1.947 0 0 1-.374-.075.512.512 0 0 1-.209-.11c-.087-.082-.124-.21-.148-.333-.104-.527-.039-1.081.083-1.61.012-.053.025-.106.044-.157a.8.8 0 0 1 .477-.452c.225-.084.468-.08.702-.06.243.023.482.071.715.142.127.038.265.087.38.163a.419.419 0 0 1 .164.444m1.357-.806c-.127.06-.252.126-.386.16-.184.046-.375.027-.56-.002-.731-.114-1.44-.376-2.178-.415a3.707 3.707 0 0 0-1.354.184l-.02.029h.005c.006.005.009.012.011.019a3.252 3.252 0 0 0-.683-.239 4.99 4.99 0 0 0-.716-.098 10.248 10.248 0 0 0-1.934.03c.154.14.297.286.418.455l.074.058c.03.025.051.053.065.084.112.111.212.238.29.393l.01.026c.81-.013 1.62-.021 2.431-.02l.005.018c.015.041.045.072.068.107.06.092.075.21.086.322.033.318.051.639.056.96.002.174.002.353.062.513.121.319.449.468.756.532.225.047.456.065.687.052.162-.009.325-.033.478-.095.308-.126.554-.4.737-.705.183-.304.314-.642.466-.966.117-.251.29-.525.543-.54.03-.002.063.001.086.023.021.02.03.05.036.079.008.033.01.067.013.101.13.308.186.655.26.983.048.216.114.404.195.58.07.095.15.177.247.237.121.075.257.108.396.123.105-.01.21-.027.316-.057.462-.13.655-.436.89-.781l.288-1.122c.051-.202.126-.432.304-.504l.112-.71a3.574 3.574 0 0 0-2.56.186" fill="#1F2A45"/>
            </g>
            <path d="M45.655 42.632c.502.001 1.002.07 1.5.14l.89.123c.073.176.151.346.236.509.091.058.179.124.263.194.47.388.846 1.01.662 1.592-.137.432-.542.72-.945.928-.62.32-1.294.532-1.986.624-.053.007-.11.012-.157-.012-.07-.035-.096-.12-.12-.196-.165-.509-.569-.914-1.034-1.176-.466-.261-.992-.392-1.517-.49a5.022 5.022 0 0 0-.395-.058l-.085.07c-.15.083-.298.18-.443.294a3.63 3.63 0 0 0-.402.37l-.171.194c-.347.416-.623.896-.873 1.378-2.513 4.854-2.925 10.497-4.294 15.811-.553.388-1.176.448-1.646.173-.666-.39-.74-1.636-.645-2.668.248-2.68 1.552-5.274 2.709-7.773a96.216 96.216 0 0 0 2.107-4.91c.217-.546.44-1.112.736-1.588.297-.676.74-1.524.843-1.68.077-.117.195-.2.312-.28 1.326-.893 2.857-1.574 4.455-1.569z" fill="#E59183"/>
        </g>
    </g>
</svg>
