<svg width="168" height="134" viewBox="0 0 168 134" xmlns="http://www.w3.org/2000/svg" xmlns:xlink="http://www.w3.org/1999/xlink">
    <defs>
        <path d="M0 18c0 9.941 8.059 18 18 18s18-8.059 18-18S27.941 0 18 0 0 8.059 0 18z" id="k9xgk6xvla"/>
    </defs>
    <g fill="none" fill-rule="evenodd">
        <path d="M8.205 78.254C-7.097 94.949 4.1 95.217 2.013 119H168c-6.163-12.008-25.173-26.466-24.89-46.467.356-25.041 16.961-36.3 14.978-46.109-4.274-21.14-17.926-15.19-37.02-9.24-15.13 4.715-33.678 9.43-53.686.668-10.96-4.8-19.518-6.85-26.225-6.852-34.264-.006-20.331 53.484-32.952 67.254" fill="#F9FAFC"/>
        <path d="M40.425 23.064a2.622 2.622 0 0 0-2.281-1.337c-.614 0-1.176.214-1.623.567a3.669 3.669 0 0 0-3.287-2.055c-.707 0-1.365.205-1.925.553a5.888 5.888 0 0 0-6.15-2.684c.073-.316.115-.644.115-.982 0-2.4-1.934-4.346-4.32-4.346s-4.321 1.945-4.321 4.346c0 .05.007.098.008.148a4.333 4.333 0 0 0-3.155 3.49 3.848 3.848 0 0 0-1.514-.307 3.888 3.888 0 0 0-3.662 2.607h32.115zm14.95 14.894a1.582 1.582 0 0 0-1.377-.806c-.37 0-.71.128-.979.342a2.213 2.213 0 0 0-1.983-1.24 2.19 2.19 0 0 0-1.162.333 3.552 3.552 0 0 0-3.71-1.619 2.614 2.614 0 0 0-2.537-3.215 2.614 2.614 0 0 0-2.607 2.622c0 .03.004.06.005.09a2.614 2.614 0 0 0-1.904 2.106 2.321 2.321 0 0 0-.913-.186c-1.02 0-1.887.657-2.21 1.573h19.376zm75.132-.653a2.44 2.44 0 0 1 2.125-1.245c.57 0 1.095.198 1.51.528a3.416 3.416 0 0 1 3.064-1.915c.658 0 1.272.19 1.794.515a5.485 5.485 0 0 1 5.73-2.5 4.04 4.04 0 0 1-.109-.916c0-2.236 1.803-4.048 4.026-4.048s4.025 1.812 4.025 4.048c0 .047-.005.092-.007.139a4.037 4.037 0 0 1 2.939 3.252c.434-.185.91-.287 1.411-.287a3.622 3.622 0 0 1 3.412 2.43h-29.92z" fill="#EFDCCE"/>
        <path d="M113.322 111.8c0 5.03-3.874 9.147-8.61 9.147H59.118c-4.736 0-8.61-4.117-8.61-9.148V15.148c0-5.032 3.874-9.148 8.61-9.148h45.594c4.736 0 8.61 4.116 8.61 9.148v96.651z" fill="#485C88"/>
        <path d="M60.295 8.968c-4.491 0-8.166 3.904-8.166 8.676v91.66c0 4.77 3.675 8.675 8.166 8.675h43.24c4.49 0 8.165-3.904 8.165-8.676v-91.66c0-4.77-3.674-8.675-8.166-8.675H60.295z" fill="#1F2A45"/>
        <path d="m58.626 68.925.002-2.127h.449l-.002 1.755.858.001-.001.372-1.306-.001zm2.051-1.064c0 .238.044.416.134.537.09.12.224.18.402.18.358 0 .537-.238.538-.716 0-.479-.178-.72-.534-.72-.178 0-.313.06-.404.181-.09.121-.136.3-.136.538m1.544.001c0 .353-.088.623-.261.812-.174.19-.423.284-.747.283-.324 0-.573-.095-.747-.284-.173-.19-.26-.462-.26-.816.001-.354.089-.624.263-.81.174-.187.423-.28.749-.28.325 0 .573.095.746.283.17.188.257.46.257.812m1.24-.127.84.001v1.103a2.257 2.257 0 0 1-.753.12c-.32 0-.564-.094-.731-.284-.169-.189-.253-.46-.252-.813 0-.343.099-.61.294-.803.195-.19.466-.287.812-.287.218.001.427.045.628.132l-.15.36a1.067 1.067 0 0 0-.481-.116.592.592 0 0 0-.466.196c-.116.13-.175.307-.175.528 0 .23.046.407.14.529.094.122.23.183.41.182.094 0 .188-.009.285-.028v-.444h-.4v-.376zm1.342 1.197.002-2.128h.45l-.003 2.128h-.449zm2.858.003-.57-.001-.918-1.61h-.014c.018.284.027.486.027.608l-.001 1.001h-.4l.002-2.128h.565l.917 1.595h.01a13.91 13.91 0 0 1-.02-.586v-1.007h.404l-.002 2.128z" fill="#253A66"/>
        <path d="M105.178 74.24c-.001 1.975.183 3.577-1.781 3.574l-43.293-.044c-1.963-.002-2.072-1.603-2.07-3.577v-.372c.003-1.974.114-3.575 2.078-3.573l43.292.044c1.964.002 1.776 1.603 1.774 3.578v.37z" fill="#FFF"/>
        <path d="M76.611 75.024H62.552c-.258 0-.47-.116-.47-.257v-1.47c0-.141.212-.257.47-.257h14.06c.258 0 .47.116.47.257v1.47c0 .141-.212.257-.47.257" fill="#0F3871"/>
        <path d="m59.063 80.841.148.001c.137 0 .24-.028.31-.083.068-.054.102-.134.102-.239 0-.106-.028-.183-.086-.234-.057-.05-.147-.076-.27-.076h-.204v.631zm1.013-.336c0 .23-.072.403-.214.525-.142.121-.344.182-.607.182h-.193v.756l-.448-.001.001-2.127h.676c.256.001.452.057.585.167.134.112.2.278.2.498zm1.433.58-.239-.778c-.017-.06-.03-.107-.038-.143-.032.123-.123.431-.274.921h.551zm.26.886-.153-.507-.771-.001-.154.506h-.483l.748-2.135h.549l.747 2.137h-.484zm1.998-.59c0 .193-.069.344-.207.454-.137.11-.329.166-.574.166a1.34 1.34 0 0 1-.599-.129l.001-.419c.143.065.264.11.362.136.1.026.19.039.272.04.098 0 .173-.02.226-.058.053-.037.079-.093.08-.168a.188.188 0 0 0-.036-.111.415.415 0 0 0-.101-.095 2.658 2.658 0 0 0-.275-.144 1.29 1.29 0 0 1-.29-.176.652.652 0 0 1-.154-.196.555.555 0 0 1-.058-.262c0-.188.064-.337.19-.445.128-.106.303-.16.527-.16.11 0 .214.014.314.04.1.026.205.063.313.11l-.145.351a2.06 2.06 0 0 0-.279-.098.862.862 0 0 0-.218-.028c-.085 0-.15.02-.195.06a.2.2 0 0 0-.069.156c0 .039.01.074.028.104.018.029.048.058.087.086.04.027.135.078.284.149.198.095.334.19.406.286a.56.56 0 0 1 .11.351m1.632.002a.55.55 0 0 1-.207.454c-.138.11-.328.166-.574.165a1.34 1.34 0 0 1-.598-.128v-.42c.143.065.264.11.363.136.099.026.189.04.27.04a.388.388 0 0 0 .227-.056.197.197 0 0 0 .079-.17.186.186 0 0 0-.034-.11.393.393 0 0 0-.102-.095 2.656 2.656 0 0 0-.274-.144 1.326 1.326 0 0 1-.29-.176.671.671 0 0 1-.155-.197.557.557 0 0 1-.058-.262c0-.188.064-.336.191-.443.127-.108.302-.162.526-.161.11 0 .215.013.314.04.1.026.205.063.313.11l-.145.35a2.214 2.214 0 0 0-.28-.097.856.856 0 0 0-.217-.028.29.29 0 0 0-.196.06.195.195 0 0 0-.068.155c0 .04.01.075.028.104.018.03.047.058.087.086.04.027.135.077.284.149.198.096.333.191.406.287.073.096.11.212.11.351m2.443.594h-.51l-.286-1.119a5.328 5.328 0 0 1-.098-.498 6.565 6.565 0 0 1-.097.5l-.286 1.115h-.51l-.537-2.128h.441l.27 1.162c.046.214.08.4.102.557a4.004 4.004 0 0 1 .098-.526l.31-1.191h.424l.306 1.191a6.21 6.21 0 0 1 .097.527c.01-.075.025-.17.047-.283.021-.113.04-.203.058-.273l.27-1.162h.442l-.541 2.128zm1.182-1.066c0 .238.044.417.134.537.09.121.223.181.402.18.357.002.537-.237.537-.716.001-.478-.177-.719-.533-.719-.179 0-.313.06-.404.181-.09.12-.137.3-.136.537m1.543.002c0 .352-.087.623-.26.812-.175.189-.423.283-.748.282-.324 0-.573-.095-.746-.284-.174-.19-.26-.461-.26-.815.001-.354.088-.624.263-.81.174-.188.423-.28.748-.28s.574.094.746.283c.172.188.258.459.257.812m.887-.115h.145c.142 0 .246-.024.314-.072.067-.046.102-.121.101-.223 0-.1-.034-.173-.103-.216-.069-.043-.176-.064-.32-.064h-.136v.575zm0 .366-.001.816h-.45l.004-2.127h.616c.288 0 .5.053.637.158.138.106.207.265.207.48a.573.573 0 0 1-.102.334.694.694 0 0 1-.292.23c.318.478.525.787.621.927l-.498-.001-.503-.817h-.24zm2.797-.253c0-.457-.2-.685-.601-.686h-.239l-.002 1.385h.193c.432 0 .648-.232.649-.7m.466-.01c-.001.35-.1.618-.299.804-.198.186-.484.28-.859.279l-.599-.002.003-2.126h.664c.345 0 .613.092.804.276.191.184.286.44.286.769" fill="#253A66"/>
        <path d="M105.166 86.96c-.002 1.974.182 3.575-1.782 3.574l-43.292-.045c-1.964-.002-2.072-1.603-2.07-3.578v-.371c.002-1.974.114-3.575 2.077-3.574l43.293.045c1.963.002 1.776 1.602 1.775 3.578l-.001.37z" fill="#FFF"/>
        <path d="m63.232 85.299-.126 1.133 1.141-.32.101.776-1.041.073.682.916-.695.37-.477-.963-.42.957-.722-.367.677-.914-1.034-.08.12-.77 1.117.32-.125-1.132h.802zm4.03.004-.126 1.133 1.142-.32.1.777-1.04.073.682.915-.696.372-.476-.964-.42.957-.722-.367.677-.914-1.035-.081.12-.77 1.117.321-.124-1.132h.802zm4.031.006-.127 1.132 1.143-.319.1.776-1.041.072.681.916-.695.371-.476-.964-.42.957-.722-.366.677-.914-1.035-.081.12-.77 1.118.322-.125-1.133h.802zm4.03.004-.127 1.132 1.141-.319.1.776-1.04.073.682.916-.695.37-.476-.963-.421.957-.722-.367.677-.914-1.034-.08.12-.77 1.117.321-.124-1.133.801.001zm4.03.005-.127 1.133 1.143-.319.1.776-1.041.072.68.916-.694.37-.476-.964-.42.958-.723-.367.677-.914-1.034-.081.12-.77 1.117.323-.125-1.134.802.001zm4.03.005-.127 1.132 1.142-.319.1.776-1.04.073.681.915-.695.372-.476-.964-.42.957-.723-.367.678-.914-1.035-.08.12-.77 1.117.321-.124-1.133h.802zm4.03.004-.127 1.133 1.143-.319.1.776-1.04.073.68.915-.695.371-.476-.964-.42.957-.722-.366.677-.914-1.035-.081.121-.77 1.117.322-.125-1.133h.802zm4.03.005-.126 1.133 1.142-.319.1.776-1.04.073.68.915-.694.371-.476-.963-.421.956-.722-.367.677-.913-1.034-.081.12-.77 1.117.322-.124-1.133h.801zm4.03.005-.126 1.133 1.141-.319.1.776-1.04.072.682.915-.696.372-.476-.964-.42.957-.722-.367.677-.914-1.034-.08.12-.77 1.116.321-.124-1.132h.802z" fill="#0F3871"/>
        <g>
            <path d="M99.608 14.46a.756.756 0 0 1-.754.757H97.58a.756.756 0 0 1-.754-.758c0-.419.337-.758.754-.758h1.273c.416 0 .754.34.754.758m-37.568 0a.756.756 0 0 1-.753.758h-3.954a.756.756 0 0 1-.754-.758c0-.419.337-.758.754-.758h3.954c.416 0 .753.34.753.758m44.041 0a.756.756 0 0 1-.754.758h-3.953a.756.756 0 0 1-.754-.758c0-.419.338-.758.754-.758h3.953c.417 0 .754.34.754.758M84.952 110.724a4 4 0 1 0-8 0 4 4 0 0 0 8 0" fill="#B3DEFF"/>
            <path d="M84.45 110.72a3.5 3.5 0 1 0-7 0 3.5 3.5 0 0 0 7 0" fill="#FFF"/>
        </g>
        <g transform="translate(64 28)">
            <mask id="l1wtosai5b" fill="#fff">
                <use xlink:href="#k9xgk6xvla"/>
            </mask>
            <use fill="#6486DB" xlink:href="#k9xgk6xvla"/>
            <path d="M24.611 24c-1.766 1.704-4.15 2.746-6.77 2.734a9.648 9.648 0 0 1-6.61-2.67C6.542 26.23 3.044 30.584 2 35.844L34 36c-1.01-5.373-4.58-9.828-9.389-12M18.044 6C13.083 5.977 9.024 9.996 9 14.954c-.026 4.969 3.991 9.023 8.953 9.046 4.966.024 9.022-3.992 9.047-8.96.025-4.959-3.99-9.016-8.956-9.04" fill="#FFF" mask="url(#l1wtosai5b)"/>
        </g>
        <path d="M127.594 125.776c7.026 0 15.007 1.98 17.095 2.929.963.438-5.286.741-11.853.945l-.717.021c-5.144.154-10.33.246-12.258.294-4.206.105-8.154.05-9.25-1.26-1.427-1.703 3.29-2.432 8.689-2.732l.57-.03c.191-.01.383-.018.574-.027l.577-.024c.384-.015.77-.028 1.153-.04l.575-.016a185.43 185.43 0 0 1 4.845-.06zm-79.566-2.09c7.674 0 16.392 1.98 18.672 2.93.937.389-4.375.673-10.615.873l-.66.021-.332.01-.667.02-.672.02-.783.022-.784.02-.782.02c-5.076.13-9.912.21-11.823.253-4.593.105-8.906.05-10.103-1.26-1.645-1.798 4.188-2.51 10.48-2.778l.61-.025.613-.022.602-.019.601-.017c2-.052 3.957-.068 5.643-.068zm18.945-4.308c1.002.002 2.02.007 3.05.014l1.031.008 1.559.015c4.666.046 16.424.132 28.807.27l1.22.013 1.926.023 1.118.013 1.117.014 1.116.014c17.463.22 33.93.546 31.366 1.015-4.119.754-16.78 2.11-30.69 2.776l-1.163.054c-.582.026-1.166.051-1.751.075l-1.173.045c-1.956.072-3.922.129-5.88.166l-1.173.02c-1.172.018-2.339.028-3.497.031H92.23c-4.46-.003-9.592-.028-14.759-.099l-1.348-.02c-11.155-.171-22.22-.57-26.82-1.453-1.214.383-3.547.601-6.118.723l-.552.025c-.277.011-.557.022-.837.031l-.562.018-.562.016a184.71 184.71 0 0 1-4.288.055h-.481c-5.823 0-12.438-1.275-14.168-1.886l20.577-.811c2.124-.041 4.17-.044 5.65.151 2.481-1.042 9.36-1.304 17.52-1.317h1.49z" fill="#F9FAFC"/>
        <g>
            <path d="M24.585 113.957c.52.32 1.26.41 1.43-.101.16-.484-.361-1.238-.89-1.524-1.244-.674-2.406-.027-2.406-.027.64.393 1.347 1.333 1.866 1.652" fill="#E695A1"/>
            <path d="M26.015 113.856c.16-.484-.361-1.238-.89-1.524-1.244-.674-2.406-.027-2.406-.027 2.183.255 3.296 1.55 3.296 1.55" fill="#B77492"/>
            <path d="m25.8 113.623-.092-.08a1.838 1.838 0 0 0-.11-.092c-.044-.034-.093-.075-.15-.114l-.088-.063c-.03-.021-.064-.042-.097-.064-.067-.045-.14-.087-.216-.133a5.739 5.739 0 0 0-.506-.252 8.868 8.868 0 0 0-.93-.337l-.387-.115s.147.032.386.096c.238.064.57.16.935.319.182.08.354.17.509.26.076.048.15.092.216.14l.097.067.088.067c.056.04.104.084.147.12.044.035.08.068.108.096l.09.085" fill="#8D556E"/>
            <path d="M22.353 108.193c.579 1.6 2.17 3.206 3.66 2.584 1.408-.587 1.743-3 1.073-4.558-1.575-3.666-5.74-4.717-5.74-4.717.712 1.972.43 5.091 1.007 6.691" fill="#E695A1"/>
            <path d="M26.013 110.777c1.408-.587 1.743-3 1.073-4.557-1.575-3.667-5.74-4.718-5.74-4.718 4.722 4.71 4.667 9.275 4.667 9.275" fill="#B77492"/>
            <path d="m25.99 109.93-.055-.33a4.459 4.459 0 0 0-.073-.385c-.034-.148-.065-.319-.12-.5l-.079-.29c-.029-.099-.065-.2-.098-.306-.065-.214-.154-.433-.241-.666-.187-.46-.417-.952-.685-1.45a25.4 25.4 0 0 0-1.533-2.432l-.687-.964s.285.346.726.926a19.295 19.295 0 0 1 1.58 2.407c.27.503.496 1.004.677 1.472.083.238.168.462.227.68.032.108.065.21.091.312l.07.294c.05.185.074.359.103.51.03.15.046.28.057.388l.04.333" fill="#8D556E"/>
            <g>
                <path d="M29.321 112.86c-.62.851-1.742 1.487-2.349.782-.572-.666-.232-2.214.425-3.02 1.546-1.9 3.823-1.634 3.823-1.634-.765 1.05-1.278 3.019-1.899 3.871" fill="#E695A1"/>
                <path d="M26.973 113.642c-.573-.666-.233-2.214.424-3.02 1.546-1.9 3.823-1.634 3.823-1.634-3.318 1.85-4.247 4.654-4.247 4.654" fill="#B77492"/>
                <path d="m27.162 113.129.096-.19c.03-.062.068-.136.116-.22.048-.082.1-.18.165-.28l.099-.159c.035-.054.074-.108.113-.166.076-.117.166-.23.258-.355.189-.24.405-.491.642-.738.475-.49.934-.876 1.266-1.152l.542-.44s-.213.15-.553.408c-.338.26-.805.634-1.284 1.128a8.515 8.515 0 0 0-.643.753c-.09.127-.18.245-.255.365-.038.06-.076.115-.11.172l-.096.164c-.063.103-.112.203-.157.29a3.155 3.155 0 0 0-.11.224l-.09.196" fill="#8D556E"/>
            </g>
            <path d="M25.601 121.752h1.48c.995 0 1.808-.077 1.808-1.346l.754-4.004c0-1.27-.814-1.154-1.808-1.154h-3.138c-.994 0-1.808-.115-1.808 1.154l.753 4.004c0 1.27.965 1.346 1.96 1.346" fill="#736357"/>
            <path d="M27.835 115.248h-1.22c.759.082 1.487.309 1.829 1.058.34.745.15 1.978.07 2.777-.115 1.164-.788 2.046-2.03 2.007-.638-.02-1.258-.142-1.904-.143-.288 0-.575-.001-.86-.005.245.754 1.052.81 1.881.81h1.48c.995 0 1.808-.076 1.808-1.346l.754-4.004c0-1.27-.814-1.154-1.808-1.154" fill="#000014"/>
        </g>
        <g>
            <path d="M135.145 115.257c.476.292 1.153.375 1.309-.093.146-.443-.33-1.133-.814-1.395-1.14-.616-2.202-.024-2.202-.024.585.36 1.232 1.22 1.707 1.512" fill="#E695A1"/>
            <path d="M136.454 115.164c.146-.443-.33-1.132-.815-1.395-1.138-.616-2.201-.024-2.201-.024 1.997.233 3.016 1.419 3.016 1.419" fill="#B77492"/>
            <path d="m136.258 114.95-.085-.073a1.712 1.712 0 0 0-.101-.083c-.04-.032-.085-.069-.137-.105l-.08-.057-.09-.059c-.06-.042-.127-.08-.197-.121a5.23 5.23 0 0 0-.463-.232 8.13 8.13 0 0 0-.852-.308l-.353-.105s.134.03.352.087c.219.06.522.147.856.292.167.074.325.156.466.239.07.044.137.084.198.127l.089.062.08.061c.051.038.095.077.135.11.04.032.072.063.099.088l.083.078" fill="#8D556E"/>
            <path d="M133.103 109.982c.53 1.464 1.985 2.933 3.35 2.364 1.287-.537 1.594-2.745.981-4.17-1.442-3.356-5.254-4.318-5.254-4.318.652 1.804.394 4.66.923 6.124" fill="#E695A1"/>
            <path d="M136.452 112.346c1.288-.537 1.595-2.745.982-4.17-1.442-3.356-5.254-4.318-5.254-4.318 4.322 4.31 4.272 8.488 4.272 8.488" fill="#B77492"/>
            <path d="m136.43 111.57-.05-.302a4.062 4.062 0 0 0-.067-.351c-.03-.135-.06-.292-.109-.459l-.072-.263c-.026-.092-.06-.184-.09-.281-.06-.196-.141-.396-.22-.61-.172-.42-.382-.871-.627-1.328a23.257 23.257 0 0 0-1.403-2.225l-.63-.882s.262.316.665.848c.402.532.947 1.285 1.446 2.202.247.46.454.919.62 1.348.076.218.153.422.208.621.029.1.06.194.083.287l.064.268c.045.17.068.33.094.467.027.137.042.257.052.356l.036.304" fill="#8D556E"/>
            <g>
                <path d="M139.48 114.252c-.569.78-1.595 1.361-2.15.716-.524-.61-.212-2.026.389-2.764 1.414-1.738 3.499-1.495 3.499-1.495-.7.96-1.17 2.763-1.738 3.543" fill="#E695A1"/>
                <path d="M137.33 114.968c-.524-.61-.212-2.026.389-2.764 1.414-1.738 3.499-1.495 3.499-1.495-3.037 1.693-3.888 4.259-3.888 4.259" fill="#B77492"/>
                <path d="m137.503 114.498.088-.173a3.03 3.03 0 0 1 .107-.2c.044-.077.09-.166.15-.257.03-.047.06-.095.09-.146l.104-.152c.07-.107.153-.211.237-.325.173-.22.37-.45.587-.675.435-.449.855-.803 1.16-1.055l.495-.402s-.195.136-.506.373c-.31.238-.737.58-1.175 1.032a7.789 7.789 0 0 0-.589.689c-.083.117-.164.225-.233.335-.035.054-.07.105-.1.157l-.089.15c-.057.094-.102.186-.144.265a2.901 2.901 0 0 0-.1.206l-.082.178" fill="#8D556E"/>
            </g>
            <path d="M136.075 122.39h1.354c.91 0 1.655-.07 1.655-1.231l.69-3.665c0-1.161-.745-1.056-1.655-1.056h-2.871c-.91 0-1.655-.105-1.655 1.056l.69 3.665c0 1.161.882 1.232 1.792 1.232" fill="#736357"/>
            <path d="M138.12 116.438h-1.117c.695.075 1.361.282 1.674.969.31.681.137 1.81.064 2.54-.105 1.066-.721 1.873-1.858 1.838-.584-.019-1.151-.13-1.742-.131-.264-.001-.526-.001-.788-.005.225.69.963.742 1.722.742h1.355c.91 0 1.654-.07 1.654-1.232l.69-3.665c0-1.161-.745-1.056-1.655-1.056" fill="#000014"/>
        </g>
        <g>
            <path d="M117.178 95.347c.939-1.64 1.275-1.95 4.068-1.338a.955.955 0 0 1 .098.027c.258-.089.762-.05 1.805.083 3.112.397 2.862 15.321 2.84 16.3-.087 3.628.15 10.17.188 15.309.004.563-1.167-.372-1.167-.372s-.465-5.668-1.643-11.71c-.084-.427-.432-2.48-.605-2.878-.208-.483-.696-2.78-1.161-5.442-.466 2.59-.95 4.694-.988 5.042-.403 3.605-.156 10.143-.566 15.266-.046.56-1.131-.473-1.131-.473l-.026-.268-.016-.17c-.14-1.45-.612-6.303-1.152-11.425-.046-.432-.214-2.508-.351-2.92-.409-1.236-.978-13.66-.193-15.031zM112.719 84.936c.057.854-1.04 1.191-2.178 1.474l-5.583.722c-.16.043-.92.095-1.444.127-.19.12-.46.175-.833.109-.839-.15-2.721.183-2.648-.229.073-.41.743-1.166 1.687-1.083.773.066 1.419.114 1.804.226l7.03-2.381c1.139-.282 2.108.181 2.165 1.035z" fill="#FDC8A8"/>
            <path d="M120.315 125.898c-.042.466 1.268 2.158.045 2.05-3.02-.269-3.22-.31-3.028-.719.45-.962.96-.496 1.22-1.968.152-.876 1.803.173 1.763.637m6.152.07c0 .466 1.453 2.037.225 2.037-3.032 0-3.235-.024-3.08-.448.365-.998.913-.579 1.042-2.068.077-.887 1.813.012 1.813.479" fill="#0F3871"/>
            <path d="M113.387 84.84c-.178.175-1.158 1.492-2.062.72l.113.064c-.903-.774-.785-1.757-.785-1.757l5.638-5.37c.852-.78 2.273-.785 3.176-.012.904.773.151 1.587-.699 2.365l-5.381 3.99z" fill="#0B6074"/>
            <path d="M116.997 93.483c.523-2.228.059-4.41-.315-6.184a152.295 152.295 0 0 1-.805-4.082c0-2.893.567-5.308 4.689-5.308 4.12 0 6.13 2.365 6.13 5.257 0 0-2.076 7.68-2.066 8.96.028 3.66 2.62 8.17 1.97 18.3-.106 1.648-7.311-.293-9.646-.395-.22-.01-1.257-11.012.043-16.548" fill="#066C84"/>
            <path d="M123.807 79.107a2.245 2.245 0 0 1 2.848 1.424l2.003 8.856c-.949.069-1.678.259-2.494.698-.268-.885-.736-1.608-.763-1.7l-2.082-6.519c-.396-1.183-.69-2.36.488-2.759" fill="#0B6074"/>
            <path d="M126.371 88.57c.707-.664 1.754-.357 2.339.687l3.307 7.129c.118.048.244.12.376.224.673.525 2.492 1.112 2.237 1.442-.254.329-1.198.684-1.995.169-.476-.307-.897-.574-1.203-.804l-.014.015-.1-.106c-.177-.142-.3-.268-.358-.381-.254-.278-.536-.596-.6-.715l-3.594-4.89c-.587-1.044-1.1-2.105-.395-2.77zM120.542 68.112c1.665.022 3.716 2.226 3.686 4.55-.01.814-1.168 1.916-2.126 2.57-.027 1.162-.249 2.672 1.336 3.239 1.16.415.166.638-.911.727l-.24.018c-.36.023-.711.032-.978.028-1.13-.014-4.117-.505-2.642-1.23 1.205-.593 1.244-1.63 1.25-2.533-.742-.38-1.524-1.175-1.373-2.66.224-2.185.335-4.73 1.998-4.71z" fill="#FDC8A8"/>
            <path d="M122.405 67.533c3.259.644 4.504 6.282 2.43 6.256-1.687-.022-1.885-3.04-3.285-4.183a2.36 2.36 0 0 1-.872.148c-.652-.008-1.215-.257-1.495-.617-.184.418-.304.938-.393 1.5a1.127 1.127 0 0 1-.415-.89c.005-.44.26-.819.63-1.005a.647.647 0 0 1-.012-.13c.008-.62.774-1.112 1.714-1.1.208.002.407.03.591.077l.114-.04c.26-.08.586-.097.993-.016z" fill="#FBDA70"/>
        </g>
        <g>
            <path fill="#FDC8A8" d="m47.466 124.75-1.293.176-.313-2.018 1.292-.175zM38.56 124.56l-1.304.08-.144-2.034 1.304-.081z"/>
            <path d="M51.894 125.413c.016-.024.004-.082-.008-.242-.019-.227-1.615-.455-2.599-.57-.19-.021-.596-.123-.725-.23-.132-.111-.052-.107-.136-.064-.26.132-.445.01-.71.029l.18 1.696c1.32-.097 3.344-.264 3.774-.298.266-.02.254-.129.243-.264-.003-.02-.011-.04-.019-.057" fill="#C591A5"/>
            <path d="m47.864 125.733.032.299c1.32-.098 3.344-.263 3.774-.298.266-.02.254-.129.243-.264-.002-.014-.008-.026-.013-.037l-4.036.3z" fill="#DB967F"/>
            <path d="M51.158 125.526c.012.135.025.244-.242.265-.632.05-4.724.387-4.93.367-.115-.012-.274-.09-.284-.226-.012-.135.096-.254.241-.265l4.931-.367c.146-.01.273.09.284.226" fill="#283042"/>
            <path d="M45.692 125.834c0 .087 1.688-.065 5.39-.347.088-.007.072-.008.051-.26-.02-.227-1.616-.455-2.598-.569-.193-.022-.598-.124-.725-.231-.134-.11-.053-.106-.137-.063-1.615.816-1.578-.08-1.84.043-.309.146-.137 1.275-.14 1.427" fill="#0F3871"/>
            <path d="M47.984 124.967c-.006.016-.034.022-.062.014-.026-.01-.044-.031-.037-.048l.166-.428c.006-.017.034-.024.061-.015.028.009.044.031.037.049l-.165.428zM48.375 124.945c-.003.014-.03.02-.057.014-.028-.007-.048-.023-.045-.038l.093-.349c.002-.014.029-.02.057-.014.028.007.047.024.044.038l-.092.35zM48.7 124.856c0 .009-.025.011-.054.006-.027-.005-.05-.017-.048-.025l.05-.22c0-.01.026-.012.054-.007s.05.017.048.026l-.05.22z" fill="#283042"/>
            <path d="M34.085 125.652c-.016-.021-.015-.08-.027-.24-.016-.227 1.289-.594 2.097-.794.157-.039.482-.175.575-.293.095-.122.029-.11.105-.075.236.108.374-.03.6-.034l.09 1.698c-1.12.02-2.84.033-3.205.038-.227.002-.232-.106-.242-.241-.002-.021.004-.04.007-.059" fill="#C591A5"/>
            <path d="m37.51 125.616.016.298c-1.121.02-2.842.034-3.206.038-.227.002-.232-.106-.242-.241 0-.014.003-.026.005-.038l3.427-.057z" fill="#DB967F"/>
            <path d="M35.14 125.691c.01.136.014.245.208.243.458-.003 3.422-.008 3.567-.046a.244.244 0 0 0 .175-.247c-.01-.135-.102-.244-.207-.243l-3.569.046c-.105 0-.183.112-.174.247" fill="#283042"/>
            <path d="M39.083 125.542c.012.087-1.213.077-3.893.105-.064 0-.052-.002-.069-.254-.015-.226 1.095-.587 1.782-.782.134-.037.41-.172.488-.289.081-.122.024-.11.09-.075 1.257.678 1.117-.21 1.318-.11.24.12.262 1.254.284 1.405" fill="#0F3871"/>
            <g fill="#283042">
                <path d="M37.336 124.873c.007.015.027.02.046.008.018-.011.027-.034.02-.05l-.173-.412c-.007-.016-.028-.02-.046-.01-.018.011-.027.035-.02.052l.173.412zM36.95 124.93c.003.013.022.017.042.008.019-.008.031-.027.026-.04l-.11-.34c-.004-.013-.023-.017-.043-.008-.019.009-.03.027-.026.04l.11.34zM36.62 124.967c.003.009.02.01.04.001.02-.007.034-.02.031-.029l-.063-.214c-.002-.009-.02-.01-.04-.002-.02.007-.033.02-.032.03l.064.214z"/>
                <path d="M37.194 124.465c.02.002.036-.012.035-.033a.052.052 0 0 0-.042-.042l-.533-.07c-.02-.003-.037.01-.035.03.001.021.02.04.042.043l.533.072zM36.875 124.614c.019.003.034-.01.033-.03 0-.02-.014-.04-.033-.042l-.457-.073c-.017-.003-.033.01-.033.03 0 .02.015.039.033.042l.457.073zM36.594 124.772c.017.006.034-.006.037-.025.003-.02-.009-.041-.026-.046l-.44-.136c-.017-.006-.035.006-.038.026-.003.02.009.04.026.045l.44.136z"/>
            </g>
            <g>
                <path d="M47.208 108.528c.062 1.228-.736.398-1.596.637l-.562 1.55c-.86.239-1.468-1.972-1.798-3.087L38.617 96.39c-.329-1.114-.094-3.148.766-3.387l1.663.72c.858-.238 3.252.077 3.581 1.192l2.581 13.614z" fill="#37456E"/>
                <path d="m45.466 106.98-.408-.01c-.9-.023-1.386.587-1.32 1.868L45.7 122.35l.194 1.13 1.747-.273L47.272 109c-.066-1.28-.904-1.998-1.806-2.02M39.778 109.47c.048 1.168-.733.021-1.687.068l-.432.02c-.954.048-1.56-.879-1.61-2.047l-1.137-11.914c-.048-1.167.017-3.267.972-3.314l1.533 1.073c.952-.047 3.35.786 3.398 1.955l-1.037 14.159z" fill="#37456E"/>
                <path d="m38.078 106.698-.433-.039c-.954-.09-1.524.483-1.567 1.764l.887 13.615.106 1.14 1.878-.143.867-14.192c.043-1.281-.783-2.057-1.738-2.145" fill="#37456E"/>
                <path d="m40.815 96.613-.398 4.14 2.835 6.875c.134.453.315 1.087.54 1.664.012-.55-1.069-3.784-2.256-6.906-1.021-2.688-.27-5.479-.72-5.773" fill="#1F2A45"/>
            </g>
            <g>
                <path d="M42.005 65.796c.16.316.32.765.463 1.272.25-.05.47.113.56.432.145.51-.118.733-.23 1.028.15.846.222 1.668.155 2.195-.102.792-.453 1.875-.904 2.477l.197 1.654c.055.66-.732 1.278-1.787 1.428l-.179.02-.096-.19c-1.081.101-1.924-.153-2.064-.77l-.018-.112-.033-2.417a1.052 1.052 0 0 1-.221-.198 6.483 6.483 0 0 1-.762-1.29l-.085.053c-.265-.595-.808-.398-1.01-1.103-.116-.412.083-.717.487-.701l.022.001c-.407-1.87-.113-3.869 2.096-4.384.973-.226 2.54-1.104 3.409.605z" fill="#FDC8A8"/>
                <path d="M40.978 63.705c.09.17.084.389.004.61.558.162.982.502 1.165 1 .076.208.118.431.094.657.027.02.05.05.068.088.462.946.646 2.213.42 2.29 0 0-.357-1.342-1.022-1.47a2.104 2.104 0 0 1-.227.166c-1.486.946-2.07-.067-4.193.911-.182.084.245.492-.263 1.14-.52.66-.13 1.689-.13 1.689-.324.063-.899-2.31-.988-2.553a1.575 1.575 0 0 1-.09-.415.764.764 0 0 1-.047-.017c-.433-3.088 2.441-2.54 3.153-3.804.088-.155.12.074.178.342.181-.068.402-.179.583-.433.358-.505 1.105-.562 1.295-.2z" fill="#0F3871"/>
            </g>
            <g>
                <path fill="#F2EBDD" d="m42.649 74.998.343 5.457-2.822 4.617-2.497-4.617v-5.617z"/>
                <path fill="#BAC8E2" d="m37.753 74.955 1.894 2.282.643-1.323-2.546-1.964z"/>
                <path fill="#F2EBDD" d="m37.753 74.955 1.894 2.047.682-1.155-2.585-2.132z"/>
                <path fill="#BAC8E2" d="m42.55 74.955-1.895 2.493-.417-1.593 2.32-1.905z"/>
                <path fill="#F2EBDD" d="m42.55 74.955-1.895 2.047-.412-1.226 2.315-2.061z"/>
            </g>
            <path d="M33.133 89.94s.416 1.708.964 2.195a.518.518 0 0 1 .297-.097c.328 0 .318.356.318.356l.16 2.145c-.474 0-1.336-.121-1.336-.968l.006.083c-.826-.706-1.924-1.939-1.924-1.939l1.515-1.775zM63.968 64.398c.125.127.123.34.007.506l-.057.068-.714.713a.422.422 0 0 1 .22.121c.114.116.153.27.101.372l-.028.037a.328.328 0 0 1 .235.094c.097.09.135.211.1.297l-.029.047-.026.027a.28.28 0 0 1 .2.08c.083.077.116.182.087.256l-.025.04c-1.857 2.253-2.378 1.281-2.837 2.036-.353.58-.793-.09-.793-.629 0-.538.979-1.677.966-2.439a2.548 2.548 0 0 1-.004-1.243c.032-.141.482-.247.546.27-.06.268.028.508.15.732l1.33-1.335c.17-.172.426-.194.57-.05z" fill="#FDC8A8"/>
            <g>
                <path d="M37.896 74.745a7.181 7.181 0 0 0-.57 2.715c-.01.617 2.844 7.612 2.844 7.612.384.074.826-3.286 1.114-3.473.597-.386.232-2.112.731-2.612 1.022-1.024.425-2.885.718-4.242 2.795.169 4.455 1.16 4.82 1.53.507.516-1.016.382-1.016 1.287L45.511 92.5c-.064.814-.169 3.032-.169 3.032-.147.314-4.755-.437-5.637-1.28 0 0-.523 1.28-4.716 1.727-.54.057-.296-2.812-.383-3.319l-1.141-15.314c.502-1.572 2.875-2.6 4.43-2.6" fill="#2F544B"/>
                <path d="M60.26 67.959s.091-.325.538-.01c.671.474 1.29.887 1.044 1.178l-5.46 5.383c-.376.438-1.295 1.237-2.167 1.567a7.776 7.776 0 0 1-.884.25l-3.899 1.142c-1.067.178-3.567 1.387-3.886 2.992l-2.883-6.05c.593.042 3.226.015 4.366-.176l3.745-.902c1.143-.229 2.024-.541 2.746-.754l.004.02zM37.103 75.77l-.365 2.365c-.375.358-.717.722-1.055 1.08l-4.764 5.078c-.154.145-.317.408-.488.807l3.268 5.8s.32.087-.058.558c-.566.708-1.064 1.36-1.33 1.112l-3.962-5.536c-.621-.593-1.967-2.526-1.13-3.572l.045-.05c.651-.757 1.588-2.11 2.417-2.935l2.564-2.803c.613-.649 2.422-1.92 4.858-1.903z" fill="#2F544B"/>
                <path d="M43.822 75.154c-.398-.68-1.146-.8-1.16-.743-.52 2.164-2.515 10.38-2.595 10.331 0 0-1.941-8.242-2.444-10.33-.014-.059-.805.285-.988.581 0 0-.616.791-.443 1.046.08.118.744.384.744.384s-.582.719-.51.902c.252.649 1.818 2.938 3.47 7.77-.043 2.414-.16 8.485-.188 9.123.05-.7.616-8.967.63-9.026 1.063-4.308 3.236-6.812 3.522-7.546.071-.184-.511-.902-.511-.902s.664-.266.745-.384c.172-.255-.272-1.206-.272-1.206" fill="#25423B"/>
                <path d="M39.388 89.345c0 .117.102.211.227.211s.227-.094.227-.21c0-.118-.102-.212-.227-.212s-.227.094-.227.211M40.588 86.268c0 .117.102.212.227.212s.228-.095.228-.212c0-.117-.103-.212-.228-.212s-.227.095-.227.212M40.147 92.072c0 .116.102.21.227.21s.227-.094.227-.21c0-.117-.102-.212-.227-.212s-.227.095-.227.212" fill="#25423B"/>
            </g>
        </g>
    </g>
</svg>
