<svg width="79" height="112" viewBox="0 0 79 112" xmlns="http://www.w3.org/2000/svg">
    <g fill="#94B5FF" fill-rule="evenodd" opacity=".2">
        <path d="M63.093 17.818a14.9 14.9 0 0 0-9.043-6.974 14.827 14.827 0 0 0-11.302 1.496l-3.514 2.04-2.03-3.532C33.092 3.69 23.983 1.238 16.86 5.37c-7.123 4.133-9.564 13.286-5.451 20.444l2.029 3.531 14.894 25.922L54.127 40.3l3.515-2.039a14.953 14.953 0 0 0 6.94-9.087 15.026 15.026 0 0 0-1.489-11.357zM66.466 71.082a10.33 10.33 0 0 0-7.889-1.054 10.38 10.38 0 0 0-6.307 4.876l-1.415 2.47-2.454-1.428c-4.974-2.897-11.33-1.185-14.196 3.822-2.866 5.007-1.158 11.414 3.816 14.31l2.454 1.43 18.012 10.488 10.38-18.133 1.415-2.47a10.535 10.535 0 0 0 1.033-7.948 10.484 10.484 0 0 0-4.85-6.363z"/>
    </g>
</svg>
