<svg width="150" height="64" viewBox="0 0 150 64" xmlns="http://www.w3.org/2000/svg">
    <g fill="none" fill-rule="evenodd">
        <text font-family="NotoSansCJKkr-Bold, Noto Sans CJK KR" font-size="28" font-weight="bold" fill="#FFF">
                        <tspan x="66" y="58">SMILE</tspan>
                    </text>
        <path d="M0 0h64v64H0z"/>
        <path d="M41.505 17.806a20.447 20.447 0 0 1 14.465 5.997 20.49 20.49 0 0 1 5.993 14.481c0 5.655-2.29 10.775-5.993 14.481a20.383 20.383 0 0 1-14.465 5.998 20.383 20.383 0 0 1-14.465-5.998 20.425 20.425 0 0 1-5.992-14.48c0-5.656 2.29-10.776 5.992-14.482a20.383 20.383 0 0 1 14.465-5.997z" stroke="#FFF" stroke-width="2.795"/>
        <path d="M49.62 37.63c-.809 0-1.463-.23-1.463-.512V34.04c0-.283.654-.512 1.462-.512.808 0 1.463.23 1.463.512v3.077c-.006.282-.657.51-1.463.512zm-15.204 0c-.806-.002-1.457-.23-1.463-.512V34.04c0-.283.655-.512 1.463-.512s1.462.23 1.462.512v3.077c0 .283-.654.512-1.462.512zm7.606 11.591c-.355 0-.713 0-1.083-.042-2.773-.226-5.44-1.278-7.715-3.044a.654.654 0 0 1-.27-.573.637.637 0 0 1 .325-.535.527.527 0 0 1 .582.058c2.106 1.635 4.573 2.61 7.139 2.82 3.263.236 6.501-.759 9.187-2.82a.529.529 0 0 1 .593-.09.635.635 0 0 1 .34.545.65.65 0 0 1-.285.582c-2.588 1.99-5.66 3.07-8.813 3.1z" fill="#FFF" fill-rule="nonzero"/>
        <path stroke="#FFF" stroke-width="2.793" stroke-linecap="round" stroke-linejoin="round" d="M16.207 56.479h-7.29V29.66H1.92l7.144-7.406V7.865H20.84v6.132L30.682 3.84l23.957 18.805"/>
    </g>
</svg>
