<svg width="118" height="51" viewBox="0 0 118 51" xmlns="http://www.w3.org/2000/svg">
    <g fill="none" fill-rule="evenodd">
        <text font-family="NotoSansCJKkr-Bold, Noto Sans CJK KR" font-size="21.875" font-weight="bold" fill="#FFF">
                        <tspan x="51.427" y="45.313">SMILE</tspan>
                    </text>
        <path d="M0 0h49.92v50H0z"/>
        <path d="M32.374 14.216c4.15 0 8.13 1.653 11.065 4.595a15.715 15.715 0 0 1 4.585 11.098c0 4.334-1.752 8.258-4.585 11.099a15.579 15.579 0 0 1-11.065 4.595 15.579 15.579 0 0 1-11.064-4.595 15.666 15.666 0 0 1-4.585-11.099c0-4.334 1.752-8.257 4.585-11.098a15.579 15.579 0 0 1 11.064-4.595z" stroke="#FFF" stroke-width="2.795"/>
        <path d="M38.703 29.399c-.63 0-1.14-.18-1.14-.4v-2.404c0-.222.51-.4 1.14-.4.63 0 1.14.178 1.14.4v2.403c-.004.22-.512.4-1.14.4zm-11.859 0c-.628-.002-1.136-.18-1.14-.4v-2.404c0-.222.51-.4 1.14-.4.63 0 1.141.178 1.141.4v2.403c0 .221-.51.4-1.14.4zm5.933 9.055c-.277 0-.556 0-.845-.033-2.163-.177-4.242-.999-6.017-2.378a.51.51 0 0 1-.21-.447c.008-.18.106-.341.253-.419a.41.41 0 0 1 .453.046c1.643 1.277 3.567 2.039 5.569 2.203 2.545.184 5.07-.593 7.166-2.203a.412.412 0 0 1 .463-.07c.153.075.256.24.265.425a.509.509 0 0 1-.222.455c-2.02 1.555-4.416 2.398-6.875 2.421z" fill="#FFF" fill-rule="nonzero"/>
        <path stroke="#FFF" stroke-width="2.793" stroke-linecap="round" stroke-linejoin="round" d="M12.642 44.124H6.956V23.173H1.498l5.572-5.786V6.144h9.185v4.791L23.932 3l18.687 14.692"/>
    </g>
</svg>
