<svg width="38" height="38" viewBox="0 0 38 38" xmlns="http://www.w3.org/2000/svg">
    <g stroke="#FFF" stroke-width="2" fill="none" fill-rule="evenodd" stroke-linecap="round" stroke-linejoin="round">
        <path d="m13.5 13.5 11 11L19 30V8l5.5 5.5-11 11M27.969 16.001a4.265 4.265 0 0 1 1.232 3.003 4.265 4.265 0 0 1-1.232 3.002m-17.938-.007A4.265 4.265 0 0 1 8.8 18.996c0-1.126.443-2.206 1.232-3.002M30.951 14c2.732 2.762 2.732 7.238 0 10M7.05 24c-2.733-2.762-2.733-7.238 0-10"/>
    </g>
</svg>
